<svg width="44" height="44" viewBox="0 0 44 44" fill="none" xmlns="http://www.w3.org/2000/svg">
<path d="M37.4 4.4H35.2V2.2C35.2 0.88 34.32 0 33 0C31.68 0 30.8 0.88 30.8 2.2V4.4H13.2V2.2C13.2 0.88 12.32 0 11 0C9.68 0 8.8 0.88 8.8 2.2V4.4H6.6C2.86 4.4 0 7.26 0 11V13.2H44V11C44 7.26 41.14 4.4 37.4 4.4ZM0 37.4C0 41.14 2.86 44 6.6 44H37.4C41.14 44 44 41.14 44 37.4V17.6H0V37.4ZM33 22C34.32 22 35.2 22.88 35.2 24.2C35.2 25.52 34.32 26.4 33 26.4C31.68 26.4 30.8 25.52 30.8 24.2C30.8 22.88 31.68 22 33 22ZM33 30.8C34.32 30.8 35.2 31.68 35.2 33C35.2 34.32 34.32 35.2 33 35.2C31.68 35.2 30.8 34.32 30.8 33C30.8 31.68 31.68 30.8 33 30.8ZM22 22C23.32 22 24.2 22.88 24.2 24.2C24.2 25.52 23.32 26.4 22 26.4C20.68 26.4 19.8 25.52 19.8 24.2C19.8 22.88 20.68 22 22 22ZM22 30.8C23.32 30.8 24.2 31.68 24.2 33C24.2 34.32 23.32 35.2 22 35.2C20.68 35.2 19.8 34.32 19.8 33C19.8 31.68 20.68 30.8 22 30.8ZM11 22C12.32 22 13.2 22.88 13.2 24.2C13.2 25.52 12.32 26.4 11 26.4C9.68 26.4 8.8 25.52 8.8 24.2C8.8 22.88 9.68 22 11 22ZM11 30.8C12.32 30.8 13.2 31.68 13.2 33C13.2 34.32 12.32 35.2 11 35.2C9.68 35.2 8.8 34.32 8.8 33C8.8 31.68 9.68 30.8 11 30.8Z" fill="#549879"/>
</svg>
