<svg width="22" height="20" viewBox="0 0 22 20" fill="none" xmlns="http://www.w3.org/2000/svg">
<path fill-rule="evenodd" clip-rule="evenodd" d="M7.53032 0.990105C7.53032 0.109647 6.24196 -0.331076 5.48833 0.29147L0.352845 4.53368C-0.40079 5.15622 0.132735 6.22048 1.19859 6.22048H3.27348C3.28856 6.62031 3.23274 7.0198 3.1078 7.40628L2.65263 8.81047C2.12508 10.4375 1.97376 12.2256 3.10122 13.6293C3.94888 14.6822 5.09529 15.5479 6.4406 16.1512C7.78591 16.7544 9.28935 17.0768 10.82 17.0903V18.0785H7.82938V19.0667H13.5115V18.0785H12.0162V17.0404C13.9593 16.8592 15.7853 16.1814 17.2396 15.1016C16.2416 15.4371 15.1741 15.6091 14.0965 15.6081C9.66621 15.6081 6.03501 12.7503 6.03501 9.18499C6.03501 9.05395 6.09803 8.92827 6.2102 8.83561C6.32237 8.74296 6.4745 8.6909 6.63313 8.6909C6.79177 8.6909 6.9439 8.74296 7.05607 8.83561C7.16824 8.92827 7.23126 9.05395 7.23126 9.18499C7.23126 12.1688 10.2829 14.6199 14.0965 14.6199C16.2049 14.6199 18.086 13.8684 19.3432 12.6905C19.3827 12.6536 19.4266 12.6228 19.4748 12.5981C19.7739 12.0596 19.9994 11.4874 20.1405 10.8911C20.3612 9.95625 20.6872 9.02144 21.3834 8.26253C21.6723 7.9478 21.3476 7.50362 20.8762 7.56785L13.0319 8.63655C12.4203 8.71988 11.7926 8.64422 11.2354 8.42001C10.6782 8.19581 10.2191 7.83415 9.92161 7.38504L7.93584 4.38743L9.14405 3.50055C9.96707 2.89678 9.44969 1.77372 8.34975 1.77372H7.53032V0.990105ZM7.34669 3.49808L8.34975 2.76189H7.53032C7.21305 2.76189 6.90878 2.65778 6.68444 2.47246C6.46011 2.28715 6.33407 2.0358 6.33407 1.77372V0.990105L4.75264 2.29646C4.88382 2.27736 5.0184 2.26781 5.15637 2.26781C5.57265 2.26785 5.98126 2.36039 6.33937 2.53572C6.69748 2.71106 6.9919 2.96273 7.19178 3.26437L7.34669 3.49808ZM2.86975 3.85184L1.19859 5.23231H3.08806L2.90982 4.6651C2.82651 4.39947 2.81285 4.12219 2.86975 3.85184ZM4.83877 4.24414C4.9974 4.24414 5.14953 4.19209 5.2617 4.09943C5.37387 4.00677 5.43689 3.8811 5.43689 3.75006C5.43689 3.61902 5.37387 3.49335 5.2617 3.40069C5.14953 3.30803 4.9974 3.25598 4.83877 3.25598C4.68013 3.25598 4.528 3.30803 4.41583 3.40069C4.30366 3.49335 4.24064 3.61902 4.24064 3.75006C4.24064 3.8811 4.30366 4.00677 4.41583 4.09943C4.528 4.19209 4.68013 4.24414 4.83877 4.24414Z" fill="#58A969"/>
</svg>
