<svg width="67" height="75" viewBox="0 0 67 75" fill="none" xmlns="http://www.w3.org/2000/svg">
<path fill-rule="evenodd" clip-rule="evenodd" d="M41.2325 14.5419C41.2325 11.5619 42.416 8.70407 44.5225 6.59694C46.629 4.48981 49.486 3.30604 52.4651 3.30604C55.4441 3.30604 58.3011 4.48981 60.4076 6.59694C62.5142 8.70407 63.6976 11.5619 63.6976 14.5419C63.6976 17.5218 62.5142 20.3797 60.4076 22.4868C58.3011 24.5939 55.4441 25.7777 52.4651 25.7777C49.486 25.7777 46.629 24.5939 44.5225 22.4868C42.416 20.3797 41.2325 17.5218 41.2325 14.5419ZM53.1152 29.0692C52.1794 31.714 50.3395 33.9432 47.9204 35.3631C45.5013 36.7831 42.6585 37.3025 39.8937 36.8298C37.129 36.3571 34.6201 34.9226 32.8098 32.7795C30.9996 30.6363 30.0044 27.9225 30 25.1168C29.9991 22.6535 30.7627 20.2507 32.1853 18.24C33.6079 16.2293 35.6194 14.7099 37.9421 13.8915C38.0679 11.0738 39.0103 8.35344 40.6545 6.062C42.2987 3.77056 44.5736 2.00692 47.2022 0.985973C49.8307 -0.0349763 52.6994 -0.269162 55.4586 0.311947C58.2179 0.893056 60.7486 2.26437 62.7424 4.25882C64.7363 6.25326 66.1072 8.78473 66.6881 11.5448C67.2691 14.3049 67.035 17.1743 66.0143 19.8037C64.9937 22.433 63.2306 24.7086 60.9398 26.3533C58.649 27.9979 55.9295 28.9406 53.1126 29.0665M54.1275 6.78518C54.1275 6.34696 53.9534 5.92668 53.6437 5.61681C53.3339 5.30694 52.9137 5.13285 52.4756 5.13285C52.0375 5.13285 51.6174 5.30694 51.3076 5.61681C50.9978 5.92668 50.8238 6.34696 50.8238 6.78518V7.52542C49.8704 7.63629 48.9873 8.08167 48.3312 8.7824C47.6751 9.48313 47.2887 10.3938 47.2405 11.3527C47.1923 12.3115 47.4855 13.2564 48.068 14.0194C48.6505 14.7824 49.4846 15.3141 50.4221 15.5201L53.5962 16.2154C53.8454 16.2725 54.0649 16.419 54.2133 16.6272C54.3616 16.8354 54.4284 17.0909 54.401 17.3451C54.3737 17.5993 54.254 17.8346 54.0648 18.0065C53.8755 18.1783 53.6298 18.2747 53.3742 18.2775H51.577C51.3614 18.2773 51.1512 18.2104 50.9751 18.0859C50.7991 17.9614 50.6659 17.7854 50.5938 17.5822C50.5271 17.3708 50.4186 17.175 50.2746 17.0065C50.1307 16.838 49.9543 16.7001 49.756 16.6012C49.5577 16.5022 49.3416 16.4442 49.1204 16.4306C48.8992 16.4169 48.6776 16.4479 48.4686 16.5217C48.2597 16.5955 48.0677 16.7106 47.9042 16.8602C47.7406 17.0098 47.6088 17.1907 47.5166 17.3922C47.4244 17.5938 47.3737 17.8119 47.3675 18.0334C47.3613 18.255 47.3997 18.4755 47.4805 18.682C47.9932 20.1413 49.2644 21.2437 50.8238 21.516V22.2933C50.8238 22.7315 50.9978 23.1518 51.3076 23.4617C51.6174 23.7715 52.0375 23.9456 52.4756 23.9456C52.9137 23.9456 53.3339 23.7715 53.6437 23.4617C53.9534 23.1518 54.1275 22.7315 54.1275 22.2933V21.516C55.1191 21.3412 56.0192 20.8274 56.6743 20.0625C57.3294 19.2977 57.6988 18.3291 57.7194 17.3221C57.7399 16.3151 57.4105 15.3322 56.7872 14.5412C56.1639 13.7501 55.2855 13.2 54.3019 12.9847L51.1304 12.2947C50.9475 12.2566 50.7853 12.1518 50.6753 12.0008C50.5652 11.8498 50.5153 11.6632 50.535 11.4774C50.5548 11.2916 50.6429 11.1197 50.7822 10.9952C50.9215 10.8707 51.1021 10.8024 51.2889 10.8036H53.3769C53.5929 10.8018 53.8041 10.868 53.9805 10.9928C54.1569 11.1175 54.2897 11.2946 54.36 11.4989C54.5162 11.8981 54.8213 12.2209 55.211 12.3993C55.6006 12.5776 56.0443 12.5975 56.4483 12.4548C56.8524 12.3121 57.1852 12.0179 57.3764 11.6343C57.5677 11.2508 57.6025 10.8079 57.4734 10.3992C57.2162 9.67315 56.7713 9.02824 56.184 8.52999C55.5968 8.03173 54.8881 7.6979 54.1301 7.56244L54.1275 6.78518Z" fill="#FFCA28"/>
<path fill-rule="evenodd" clip-rule="evenodd" d="M21.0221 13.3754C21.0221 10.3738 17.4255 8.87133 15.3216 10.9936L0.985025 25.4557C-1.11887 27.578 0.370553 31.2062 3.34606 31.2062H9.13846C9.18056 32.5692 9.02474 33.9312 8.67594 35.2487L7.40525 40.0357C5.93252 45.5823 5.51007 51.6781 8.65757 56.4634C11.024 60.0528 14.2243 63.0043 17.98 65.0607C21.7357 67.1172 25.9328 68.2164 30.2058 68.2625V71.6312H21.857V75H37.7197V71.6312H33.5453V68.0924C38.9696 67.4744 44.0674 65.1638 48.1273 61.4829C45.341 62.6265 42.3609 63.2129 39.3528 63.2094C26.9849 63.2094 16.8477 53.4669 16.8477 41.3124C16.8477 40.8657 17.0237 40.4373 17.3368 40.1214C17.6499 39.8055 18.0747 39.6281 18.5175 39.6281C18.9603 39.6281 19.3851 39.8055 19.6982 40.1214C20.0113 40.4373 20.1873 40.8657 20.1873 41.3124C20.1873 51.4844 28.7064 59.8406 39.3528 59.8406C45.2387 59.8406 50.4901 57.2787 53.9999 53.2631C54.1101 53.1373 54.2325 53.0323 54.3672 52.9481C55.2021 51.1122 55.8316 49.1616 56.2257 47.1286C56.8418 43.9418 57.7518 40.7549 59.6954 38.1677C60.5019 37.0948 59.5953 35.5805 58.2795 35.7995L36.3806 39.4428C34.6735 39.7269 32.921 39.4689 31.3655 38.7046C29.8101 37.9403 28.5284 36.7073 27.6978 35.1763L22.1542 24.9571L25.5271 21.9337C27.8247 19.8754 26.3804 16.0468 23.3097 16.0468H21.0221V13.3754ZM20.5095 21.9253L23.3097 19.4155H21.0221C20.1364 19.4155 19.287 19.0606 18.6607 18.4289C18.0345 17.7971 17.6826 16.9402 17.6826 16.0468V13.3754L13.2678 17.8289C13.634 17.7637 14.0097 17.7312 14.3949 17.7312C15.557 17.7313 16.6977 18.0468 17.6974 18.6445C18.6971 19.2422 19.5191 20.1002 20.0771 21.1285L20.5095 21.9253ZM8.01137 23.1313L3.34606 27.8374H8.62083L8.12325 25.9038C7.89068 24.9982 7.85254 24.0529 8.01137 23.1313ZM13.5082 24.4687C13.9511 24.4687 14.3758 24.2912 14.6889 23.9753C15.0021 23.6594 15.178 23.231 15.178 22.7843C15.178 22.3376 15.0021 21.9091 14.6889 21.5933C14.3758 21.2774 13.9511 21.0999 13.5082 21.0999C13.0654 21.0999 12.6407 21.2774 12.3275 21.5933C12.0144 21.9091 11.8385 22.3376 11.8385 22.7843C11.8385 23.231 12.0144 23.6594 12.3275 23.9753C12.6407 24.2912 13.0654 24.4687 13.5082 24.4687Z" fill="#FFCA28"/>
</svg>
