<svg width="49" height="49" viewBox="0 0 49 49" fill="none" xmlns="http://www.w3.org/2000/svg">
<path d="M24.7059 0C24.6544 0 24.5824 8.71514e-08 24.5206 0.012422C24.0471 0.10041 23.4809 0.540352 23.1103 1.54549C22.7191 2.54959 22.6368 3.98121 22.9765 5.51428C23.3265 7.02871 24.0471 8.33404 24.85 9.13111C25.6324 9.92818 26.3426 10.1456 26.8162 10.0628C27.3103 9.99029 27.8559 9.53482 28.2265 8.54107C28.6176 7.54318 28.7206 6.0919 28.3706 4.57125C28.0103 3.03922 27.3 1.74631 26.4971 0.954414C25.8176 0.250508 25.1897 0 24.7059 0ZM36.5853 13.4063C35.4529 13.4374 34.0221 13.7376 32.6324 14.3276C31.0265 15.0315 29.7912 15.9735 29.1118 16.8637C28.4324 17.7229 28.3706 18.3751 28.5868 18.7581C28.8132 19.1411 29.4412 19.5034 30.6456 19.5551C31.85 19.6276 33.4765 19.3274 35.0721 18.6442C36.6676 17.9506 37.9235 16.9983 38.6029 16.1288C39.2824 15.2696 39.3338 14.5967 39.1176 14.2137C38.9015 13.8204 38.2632 13.4788 37.0588 13.4374C36.8941 13.4063 36.75 13.4063 36.5853 13.4063ZM22.5544 23.0229C21.875 23.0333 21.2574 23.1161 20.7015 23.261C19.4868 23.5715 18.7868 24.1305 18.5603 24.8034C18.3029 25.4762 18.5603 26.2837 19.3632 27.1532C20.2074 28.002 21.5971 28.8198 23.3265 29.2753C25.0456 29.7307 26.7029 29.7204 27.9382 29.3891C29.1838 29.0682 29.8838 28.4989 30.1103 27.8364C30.3471 27.1635 30.1103 26.3665 29.2765 25.4866C28.4632 24.6378 27.0735 23.82 25.3441 23.3749C24.3662 23.1161 23.4088 23.0126 22.5544 23.0229ZM39.0971 29.0372L32.7353 32.0702C33.1676 32.0909 34.2485 32.1219 34.2485 32.1219L34.9279 33.0225L40.5588 30.0723L39.0971 29.0372ZM33.4868 29.0475L27.5779 31.8631C28.1441 31.8942 29.4824 31.9149 30.0176 31.946L35.1441 29.503L33.4868 29.0475ZM43.0191 30.1655L35.7618 34.037L37.2544 35.9727L44.9235 31.3559L43.0191 30.1655ZM14.3191 31.1075C14.0074 31.1069 13.6966 31.1416 13.3926 31.211C6.03235 32.919 1.68824 33.0639 0.401471 33.0639H0V44.1919C0 44.1919 1.19412 44.0159 3.18088 44.0055C7.02059 44.0055 13.7838 44.668 20.3721 48.5395C20.7221 48.7569 21.4735 48.8397 22.4103 48.8397C24.9118 48.8397 28.7103 48.2393 29.5853 47.9081C38.3971 44.5852 49 35.4655 49 35.4655L45.6544 32.5256C45.6544 32.5256 37.4397 37.7946 36.4 38.3018C27.0221 42.929 19.425 40.0409 19.425 40.0409C19.425 40.0409 31.7676 40.3514 35.7309 37.2149L33.4044 33.6954C33.4044 33.6954 24.8809 33.4573 21.8441 33.0536C20.2588 32.8465 16.8309 31.1075 14.3191 31.1075Z" fill="#549879"/>
</svg>
