<svg width="48" height="45" viewBox="0 0 48 45" fill="none" xmlns="http://www.w3.org/2000/svg">
<path d="M20.4998 0.000856039C20.0412 -0.000485087 19.5813 -0.000250393 19.12 0.00156013C16.8998 0.0105121 14.6442 0.0611061 12.3693 0.134332L13.0275 2.63818C15.3965 2.40583 17.9937 2.23282 20.5907 2.14632C21.9977 2.09945 23.3961 2.0747 24.7525 2.08094C28.8219 2.09935 32.5141 2.39577 34.9298 3.20769L35.9627 3.55511L35.5015 4.42868C32.1318 10.8143 31.3525 16.9748 31.8805 23.0193C32.1412 15.8458 35.5786 9.46555 40.0912 1.28622C33.9508 0.401081 27.3788 0.0207717 20.4998 0.000856039ZM23.7505 3.90252C22.737 3.90323 21.7039 3.92103 20.6709 3.95543C15.8389 4.11637 11.0237 4.60822 7.8854 5.1721C11.391 10.8128 14.2269 16.4664 16.0581 21.9779C16.2859 21.9714 16.5139 21.9729 16.7416 21.9825C17.2075 22.0023 17.6683 22.0571 18.1185 22.1424C16.2546 16.9727 14.1314 12.2047 11.4922 7.4439L10.8959 6.36825L12.2509 6.16024C15.6548 5.6374 19.1682 5.43503 22.5121 5.43412C22.7351 5.43412 22.9573 5.43493 23.1786 5.43654C25.3033 5.45263 27.351 5.54798 29.2483 5.69152L30.53 5.78858L30.1562 6.85649C27.9879 13.0488 27.5631 19.6989 28.7891 26.0261C28.8097 26.0424 28.83 26.0588 28.8501 26.0753C29.2922 25.941 29.7058 25.804 30.0914 25.6575C29.1343 18.8787 29.5583 11.8852 33.1327 4.61517C31.1381 4.1743 28.0974 3.94386 24.7564 3.90765C24.4211 3.90406 24.0858 3.90228 23.7505 3.90252ZM40.5573 4.64534C36.9679 11.2393 34.4184 16.5234 34.0005 22.2278C36.324 15.5086 40.815 9.48526 45.9326 5.61548C44.1562 5.23107 42.363 4.90745 40.5573 4.64534ZM6.35563 6.50907C4.18035 6.89813 2.05539 7.392 0 8.07436C1.00021 8.82673 2.80839 10.2264 5.00222 12.0866C6.01194 11.185 7.04172 10.2944 8.1158 9.48446C7.54691 8.4848 6.96011 7.49288 6.35563 6.50907ZM22.8237 7.26164C21.2444 7.255 19.6277 7.29423 18.0053 7.3917C17.8351 8.76789 16.8968 10.0554 15.7761 11.3215C17.5654 14.9897 19.1107 18.7329 20.5019 22.7071C22.6326 23.2522 24.7405 23.8967 26.448 24.6689C25.8137 20.3983 25.9005 16.0223 26.724 11.743C25.2299 10.4042 24.4516 8.91756 24.3893 7.28307C23.8675 7.27101 23.3456 7.26387 22.8237 7.26164ZM43.9292 9.97591C41.0617 12.923 38.535 16.6142 36.8132 20.629C39.9745 16.7281 43.862 13.6855 48 11.5362C46.6519 10.999 45.2948 10.4788 43.9292 9.97591ZM9.05746 11.1788C7.36523 12.5053 5.69319 14.0975 3.95192 15.6143C7.69593 17.5446 10.8849 19.8306 13.4863 22.4198C13.6478 22.3669 13.811 22.3193 13.975 22.276C12.7578 18.6453 11.0895 14.93 9.05746 11.1788ZM36.1194 23.7269C34.2181 25.7173 32.4282 26.7681 29.9635 27.6064C30.2407 28.5338 29.829 29.5985 28.8812 30.4128C28.3237 30.8917 27.6231 31.4376 26.5987 31.7924C26.7465 31.8683 26.8974 31.9396 27.051 32.0063C28.4846 32.6269 31.0174 32.4268 33.3704 31.4985C35.7161 30.5731 37.8117 28.9746 38.5883 27.3553C38.9776 26.445 38.6996 25.9702 38.0182 25.274C37.533 24.7786 36.8244 24.2791 36.1194 23.7269ZM16.3982 23.7858C15.1558 23.776 13.894 24.087 12.8512 24.7675C11.3682 25.7355 10.2249 27.4616 10.2147 30.3936V30.4138L10.2135 30.4339C9.87492 36.6078 10.399 39.4563 11.4374 41.0018C12.3539 42.3659 13.8782 43.0189 16.108 44.2199C16.2142 43.9779 16.3248 43.6802 16.4286 43.3047C16.6926 42.3493 16.9111 41.0371 17.0495 39.5856C17.3265 36.683 17.2861 33.1975 16.8228 30.6895L16.5781 29.3627L18.0873 29.664C21.7532 30.3955 23.8502 30.482 25.0677 30.2957C26.2854 30.1092 26.6981 29.7401 27.4124 29.1265C28.0838 28.5499 28.0712 28.3424 27.9291 28.0179C27.7868 27.6933 27.2161 27.1584 26.2478 26.6467C24.311 25.6231 21.02 24.6741 17.9439 23.9664C17.4393 23.8506 16.9201 23.7899 16.3982 23.7858ZM38.325 30.768C37.1639 31.7491 35.7352 32.5545 34.2345 33.1465C31.8015 34.1063 29.1252 34.5454 26.905 33.9062C26.1211 34.1593 25.6658 34.4501 25.4361 34.6908C25.1209 35.0211 25.1012 35.2641 25.208 35.6122C25.3148 35.9602 25.633 36.3734 26.0265 36.6707C26.4199 36.968 26.8876 37.1225 27.0653 37.1298C32.4913 37.3533 34.8395 36.0025 37.7652 34.4358C38.6183 33.979 38.9449 33.0535 38.8631 32.1293C38.8222 31.6672 38.6672 31.233 38.4882 30.9595C38.4438 30.8897 38.3889 30.8253 38.325 30.768ZM19.0551 31.6829C19.3713 34.2044 19.3765 37.1461 19.1295 39.735C18.9849 41.251 18.7613 42.6297 18.4582 43.7267C18.3264 44.2041 18.1814 44.6273 18.006 45L35.016 44.3497C34.824 43.7312 34.6283 43.1101 34.4327 42.4887C33.7791 42.6774 33.1111 42.8261 32.4336 42.9337L32.4387 43.0071L31.4745 43.0592C30.8807 43.121 30.2625 43.1551 29.6212 43.159L19.8973 43.683L20.1864 42.5156C21.1079 38.7933 21.1929 35.516 20.6245 31.9307C20.0995 31.8569 19.5763 31.7743 19.0551 31.6829ZM22.7623 32.1541C23.2201 35.366 23.165 38.4315 22.4833 41.7297L24.7171 41.6094C24.3667 41.1611 24.1259 40.6552 24.0097 40.123C23.8595 39.4309 23.9431 38.6607 24.465 38.0238C24.488 37.9955 24.513 37.9684 24.5377 37.9412C23.9294 37.4539 23.4213 36.8285 23.191 36.078C22.9459 35.2789 23.0989 34.3006 23.8284 33.5362C24.0695 33.2837 24.3608 33.0558 24.703 32.8506C24.4004 32.6414 24.1351 32.4196 23.906 32.1886C23.5507 32.1907 23.1702 32.1792 22.7623 32.1541ZM38.1454 36.357C35.4256 37.7906 32.3697 39.1609 26.9663 38.9384C26.79 38.9309 26.6147 38.9102 26.4424 38.8765C26.2995 38.9321 26.2232 39.0029 26.1662 39.0724C26.0546 39.2087 25.9886 39.4546 26.0608 39.7878C26.2055 40.4544 26.9334 41.1848 27.6111 41.2532C32.4099 41.7373 35.7254 40.3755 37.7386 38.7912C38.6662 38.0612 38.6741 37.5943 38.5375 37.0862C38.4691 36.8325 38.3184 36.5864 38.1454 36.357ZM37.3704 41.2919C37.0483 41.467 36.7176 41.6301 36.3794 41.7807C36.5707 42.3893 36.7625 42.998 36.9519 43.6067L39.2616 43.2474C38.6656 42.8062 38.1993 42.3468 37.825 41.8899C37.6578 41.6858 37.5104 41.4875 37.3704 41.2919Z" fill="#F68B3A"/>
</svg>
