<svg width="39" height="43" viewBox="0 0 39 43" fill="none" xmlns="http://www.w3.org/2000/svg">
<path fill-rule="evenodd" clip-rule="evenodd" d="M19.4988 4.15438e-06C15.169 -0.00213883 10.9617 1.19558 7.54091 3.40412C4.12013 5.61265 1.68075 8.7062 0.60781 12.1965C-0.465127 15.6867 -0.110507 19.3749 1.61569 22.6788C3.3419 25.9828 6.34136 28.7143 10.1406 30.4422V35.6671H28.8594V30.4422C32.6588 28.7142 35.6584 25.9825 37.3845 22.6784C39.1107 19.3743 39.4651 15.6859 38.3919 12.1955C37.3187 8.70514 34.8789 5.61159 31.4577 3.40322C28.0365 1.19484 23.8288 -0.00257394 19.4988 4.15438e-06ZM17.7362 9.26876H16.5612C15.4704 9.26876 14.4243 9.62929 13.653 10.271C12.8818 10.9128 12.4485 11.7832 12.4485 12.6908V13.5668C12.4485 15.1703 13.788 16.5586 15.6681 16.9067L22.5657 18.1816C22.6959 18.206 22.8122 18.2666 22.8954 18.3533C22.9787 18.44 23.0241 18.5478 23.024 18.6588V20.5125C23.024 20.6422 22.9621 20.7665 22.8519 20.8582C22.7417 20.9499 22.5923 21.0014 22.4365 21.0014H16.5612C16.4053 21.0014 16.2559 20.9499 16.1457 20.8582C16.0355 20.7665 15.9736 20.6422 15.9736 20.5125V19.5348H12.4485V20.5125C12.4485 22.4015 14.291 23.9345 16.5612 23.9345H17.7362V26.3788H21.2614V23.9345H22.4365C23.5272 23.9345 24.5733 23.574 25.3446 22.9322C26.1159 22.2905 26.5492 21.4201 26.5492 20.5125V18.6588C26.5492 17.0553 25.2096 15.6669 23.3295 15.3189L16.4343 14.0439C16.3037 14.0199 16.1869 13.9595 16.1031 13.8728C16.0194 13.786 15.9737 13.6781 15.9736 13.5668V12.6908C15.9736 12.5611 16.0355 12.4368 16.1457 12.3451C16.2559 12.2534 16.4053 12.2019 16.5612 12.2019H22.4365C22.5923 12.2019 22.7417 12.2534 22.8519 12.3451C22.9621 12.4368 23.024 12.5611 23.024 12.6908V13.6685H26.5492V12.6908C26.5492 11.7832 26.1159 10.9128 25.3446 10.271C24.5733 9.62929 23.5272 9.26876 22.4365 9.26876H21.2614V6.82447H17.7362V9.26876ZM13.036 43H25.9617V39.0891H13.036V43Z" fill="#F68B3A"/>
</svg>
