<svg width="70" height="70" viewBox="0 0 70 70" fill="none" xmlns="http://www.w3.org/2000/svg">
<path d="M7.08787 40C5.20834 40 3.40576 40.746 2.07658 42.0741C0.747393 43.4021 0.000442243 45.2033 0 47.0817V48.3333C0 54.5933 3.23874 59.2783 8.20525 62.3C13.0917 65.2716 19.6559 66.6666 26.6837 66.6666C33.7116 66.6666 40.2758 65.2716 45.1622 62.3C50.1287 59.2783 53.3675 54.5933 53.3675 48.3333V47.0817C53.367 45.2033 52.6201 43.4021 51.2909 42.0741C49.9617 40.746 48.1591 40 46.2796 40H7.08787Z" fill="url(#paint0_linear_232_169)"/>
<path d="M7.08787 40C5.20834 40 3.40576 40.746 2.07658 42.0741C0.747393 43.4021 0.000442243 45.2033 0 47.0817V48.3333C0 54.5933 3.23874 59.2783 8.20525 62.3C13.0917 65.2716 19.6559 66.6666 26.6837 66.6666C33.7116 66.6666 40.2758 65.2716 45.1622 62.3C50.1287 59.2783 53.3675 54.5933 53.3675 48.3333V47.0817C53.367 45.2033 52.6201 43.4021 51.2909 42.0741C49.9617 40.746 48.1591 40 46.2796 40H7.08787Z" fill="url(#paint1_linear_232_169)"/>
<path d="M7.08787 40C5.20834 40 3.40576 40.746 2.07658 42.0741C0.747393 43.4021 0.000442243 45.2033 0 47.0817V48.3333C0 54.5933 3.23874 59.2783 8.20525 62.3C13.0917 65.2716 19.6559 66.6666 26.6837 66.6666C33.7116 66.6666 40.2758 65.2716 45.1622 62.3C50.1287 59.2783 53.3675 54.5933 53.3675 48.3333V47.0817C53.367 45.2033 52.6201 43.4021 51.2909 42.0741C49.9617 40.746 48.1591 40 46.2796 40H7.08787Z" fill="url(#paint2_radial_232_169)" fill-opacity="0.75"/>
<path d="M7.08787 40C5.20834 40 3.40576 40.746 2.07658 42.0741C0.747393 43.4021 0.000442243 45.2033 0 47.0817V48.3333C0 54.5933 3.23874 59.2783 8.20525 62.3C13.0917 65.2716 19.6559 66.6666 26.6837 66.6666C33.7116 66.6666 40.2758 65.2716 45.1622 62.3C50.1287 59.2783 53.3675 54.5933 53.3675 48.3333V47.0817C53.367 45.2033 52.6201 43.4021 51.2909 42.0741C49.9617 40.746 48.1591 40 46.2796 40H7.08787Z" fill="#FFCA28"/>
<path d="M26.6837 0C17.4728 0 10.0063 7.46166 10.0063 16.6666C10.0063 25.8716 17.4728 33.3333 26.6837 33.3333C35.8946 33.3333 43.361 25.8716 43.361 16.6666C43.361 7.46166 35.8946 0 26.6837 0Z" fill="#FFCA28"/>
<path d="M45.0288 54.9998H58.3707V69.9997H45.0288V54.9998Z" fill="#D9D9D9"/>
<path d="M45.0288 54.9998H58.3707V69.9997H45.0288V54.9998Z" fill="#944600"/>
<path d="M49.2699 39.7418C49.9482 39.1657 50.8095 38.8494 51.6997 38.8494C52.59 38.8494 53.4513 39.1657 54.1296 39.7418L65.3868 49.3035C66.2257 50.0151 66.7094 51.0601 66.7094 52.1601V67.1134C66.7094 67.4922 66.6347 67.8673 66.4896 68.2172C66.3445 68.5672 66.1318 68.8851 65.8637 69.1528C65.5956 69.4206 65.2774 69.633 64.9271 69.7778C64.5769 69.9226 64.2015 69.997 63.8225 69.9968L56.7029 70.0001V58.9718C56.7029 57.7001 55.674 56.6701 54.4031 56.6634H48.9947C48.3838 56.6661 47.7989 56.9105 47.3679 57.3431C46.9369 57.7757 46.6949 58.3613 46.6949 58.9718L46.6965 70.0001L39.5753 69.9984C39.1962 69.9986 38.8207 69.9242 38.4703 69.7793C38.12 69.6344 37.8016 69.4219 37.5335 69.1539C37.2654 68.886 37.0528 68.5679 36.9078 68.2177C36.7628 67.8676 36.6883 67.4924 36.6885 67.1134V52.1601C36.6885 51.0601 37.1721 50.0151 38.011 49.3035L49.2699 39.7418Z" fill="#212121"/>
<path d="M49.2699 39.7418C49.9482 39.1657 50.8095 38.8494 51.6997 38.8494C52.59 38.8494 53.4513 39.1657 54.1296 39.7418L65.3868 49.3035C66.2257 50.0151 66.7094 51.0601 66.7094 52.1601V67.1134C66.7094 67.4922 66.6347 67.8673 66.4896 68.2172C66.3445 68.5672 66.1318 68.8851 65.8637 69.1528C65.5956 69.4206 65.2774 69.633 64.9271 69.7778C64.5769 69.9226 64.2015 69.997 63.8225 69.9968L56.7029 70.0001V58.9718C56.7029 57.7001 55.674 56.6701 54.4031 56.6634H48.9947C48.3838 56.6661 47.7989 56.9105 47.3679 57.3431C46.9369 57.7757 46.6949 58.3613 46.6949 58.9718L46.6965 70.0001L39.5753 69.9984C39.1962 69.9987 38.8207 69.9242 38.4703 69.7793C38.12 69.6344 37.8016 69.4219 37.5335 69.1539C37.2654 68.886 37.0528 68.5679 36.9078 68.2177C36.7628 67.8676 36.6883 67.4924 36.6885 67.1134V52.1601C36.6885 51.0601 37.1721 50.0151 38.011 49.3035L49.2699 39.7418Z" fill="#FFD394"/>
<path fill-rule="evenodd" clip-rule="evenodd" d="M50.088 37.2549C50.5389 36.8755 51.1095 36.6675 51.699 36.6675C52.2885 36.6675 52.859 36.8755 53.31 37.2549L69.1535 50.5882C69.6432 51.0204 69.9443 51.6269 69.9924 52.278C70.0406 52.9291 69.8319 53.5732 69.411 54.0726C68.9902 54.572 68.3906 54.887 67.7403 54.9504C67.0901 55.0137 66.4409 54.8203 65.9314 54.4116L51.699 42.4349L37.4665 54.4116C37.2166 54.6321 36.9251 54.8005 36.609 54.9069C36.293 55.0132 35.9589 55.0554 35.6264 55.0308C35.2938 55.0063 34.9696 54.9155 34.6726 54.7639C34.3757 54.6123 34.1121 54.403 33.8973 54.1481C33.6825 53.8932 33.5208 53.598 33.4218 53.2798C33.3229 52.9615 33.2885 52.6268 33.3209 52.2951C33.3532 51.9634 33.4516 51.6416 33.6102 51.3485C33.7688 51.0553 33.9845 50.7969 34.2445 50.5882L50.088 37.2549Z" fill="black"/>
<path fill-rule="evenodd" clip-rule="evenodd" d="M50.088 37.2549C50.5389 36.8755 51.1095 36.6675 51.699 36.6675C52.2885 36.6675 52.859 36.8755 53.31 37.2549L69.1535 50.5882C69.6432 51.0204 69.9443 51.6269 69.9924 52.278C70.0406 52.9291 69.8319 53.5732 69.411 54.0726C68.9902 54.572 68.3906 54.887 67.7403 54.9504C67.0901 55.0137 66.4409 54.8203 65.9314 54.4116L51.699 42.4349L37.4665 54.4116C37.2166 54.6321 36.9251 54.8005 36.609 54.9069C36.293 55.0132 35.9589 55.0554 35.6264 55.0308C35.2938 55.0063 34.9696 54.9155 34.6726 54.7639C34.3757 54.6123 34.1121 54.403 33.8973 54.1481C33.6825 53.8932 33.5208 53.598 33.4218 53.2798C33.3229 52.9615 33.2885 52.6268 33.3209 52.2951C33.3532 51.9634 33.4516 51.6416 33.6102 51.3485C33.7688 51.0553 33.9845 50.7969 34.2445 50.5882L50.088 37.2549Z" fill="#FF921F"/>
<defs>
<linearGradient id="paint0_linear_232_169" x1="12.6915" y1="43.545" x2="21.3019" y2="71.0614" gradientUnits="userSpaceOnUse">
<stop offset="0.125" stop-color="#9C6CFE"/>
<stop offset="1" stop-color="#7A41DC"/>
</linearGradient>
<linearGradient id="paint1_linear_232_169" x1="26.6837" y1="36.825" x2="38.7404" y2="81.9088" gradientUnits="userSpaceOnUse">
<stop stop-color="#885EDB" stop-opacity="0"/>
<stop offset="1" stop-color="#E362F8"/>
</linearGradient>
<radialGradient id="paint2_radial_232_169" cx="0" cy="0" r="1" gradientUnits="userSpaceOnUse" gradientTransform="translate(40.0256 61.6666) rotate(90) scale(15.8333 5.68072)">
<stop offset="0.042" stop-color="#0A1852" stop-opacity="0.75"/>
<stop offset="1" stop-color="#0A1852" stop-opacity="0"/>
</radialGradient>
</defs>
</svg>
