<svg width="81" height="81" viewBox="0 0 81 81" fill="none" xmlns="http://www.w3.org/2000/svg">
<path d="M59.1427 24.9644C63.3889 24.0215 68.9197 19.807 69.7613 17.7314C70.2549 16.5164 67.7933 14.618 67.1352 13.8523C65.6291 12.1057 66.2366 11.2451 66.8188 9.16311C67.4832 6.79639 65.9075 4.18288 63.6737 3.15772C61.4398 2.13256 58.7694 2.4553 56.5229 3.45514C54.2764 4.45499 52.359 6.06233 50.4795 7.64436C49.1063 6.77741 46.9168 2.94889 43.3731 5.43585C40.9241 7.15077 40.7026 10.8844 41.019 13.8649C41.7594 20.7436 43.4553 24.3126 46.651 25.2745C50.6884 26.4895 55.156 25.8504 59.1427 24.9644Z" fill="#FFCA28"/>
<path d="M66.0401 5.17639C65.5022 14.4471 56.4593 20.598 52.1688 23.3065L54.9532 25.6985C54.9532 25.6985 56.7188 25.7365 59.1361 24.9644C63.281 23.6482 69.337 19.9273 69.7547 17.7314C70.3685 14.5357 67.0906 15.2318 66.3502 12.7069C65.9641 11.3716 68.2296 8.8467 66.0401 5.17639ZM50.4856 7.65069C50.4856 7.65069 48.8719 5.99905 47.6759 5.246C47.081 6.36608 46.657 7.58108 46.4482 8.83405C46.0749 11.0362 46.4482 14.1623 47.3278 16.4911C47.467 16.8518 47.9859 16.7948 48.0429 16.4151C48.8023 11.4096 50.4856 7.65069 50.4856 7.65069Z" fill="#E2A610"/>
<path d="M39.2093 24.1481C39.2093 24.1481 19.4719 26.2807 10.5682 43.4173C1.66453 60.5538 9.23297 70.9446 17.2444 74.7288C25.2558 78.5131 45.4425 79.8483 58.5734 76.7349C71.7042 73.6214 74.9885 67.1667 74.3747 60.9335C73.4824 51.8337 65.0281 46.2396 65.0281 46.2396C65.0281 46.2396 65.3634 35.0009 56.6433 27.7045C48.904 21.2245 39.2093 24.1481 39.2093 24.1481Z" fill="#FFCA28"/>
<path d="M47.3092 52.9854C43.0756 47.6444 38.0764 46.9294 36.4754 45.0119C35.6021 43.9678 35.0895 42.911 35.2857 41.6011C35.4945 40.2089 37.1082 39.247 38.3612 39.0129C39.823 38.7344 43.3098 38.88 46.2397 41.6707C46.9358 42.3288 46.6827 43.354 46.6637 44.2715C46.6131 46.2396 49.4291 48.1507 51.7072 46.5054C53.9917 44.8537 52.2388 41.1771 50.7643 39.3926C49.6506 38.0447 45.6132 35.0768 40.595 34.6085C39.1838 34.4756 33.5075 33.634 30.2295 39.8672C29.2867 41.658 28.9386 45.9865 33.8745 49.6441C34.906 50.4098 40.2596 53.1309 41.7467 54.8965C44.3223 57.953 42.5567 60.6424 40.5444 60.9968C35.0579 61.9587 31.9508 58.9908 31.3749 57.3644C30.9636 56.2064 31.3939 54.9534 30.8624 53.865C30.3181 52.7449 29.2044 52.3019 28.0274 52.6753C24.1672 53.903 25.3949 58.1238 27.1035 60.4462C28.9323 62.9332 31.1788 64.433 33.7037 65.2556C43.1263 68.3247 47.6572 63.4774 48.4482 59.9273C49.0304 57.3265 48.9671 55.0737 47.3092 52.9854Z" fill="#6B4B46"/>
<path d="M45.0311 31.0015C37.0133 48.1254 35.6338 69.7486 35.6338 69.7486" stroke="#6B4B46" stroke-width="0.625" stroke-miterlimit="10"/>
<path d="M51.682 20.2247C57.0229 21.9649 58.2063 26.7933 57.8203 28.1095C57.3583 29.6536 51.4415 23.6418 42.6454 24.0025C39.5699 24.1291 40.4622 22.2433 41.886 21.1549C43.7655 19.7184 46.9232 18.6806 51.682 20.2247Z" fill="#6D4C41"/>
<path d="M51.682 20.2247C57.0229 21.9649 58.2063 26.7933 57.8203 28.1095C57.3583 29.6536 51.4415 23.6418 42.6454 24.0025C39.5699 24.1291 40.4622 22.2433 41.886 21.1549C43.7655 19.7184 46.9232 18.6806 51.682 20.2247Z" fill="#6B4B46"/>
<path d="M61.0602 37.2473C61.731 36.7854 63.9838 37.5827 64.6166 41.9934C64.9267 44.1513 65.0216 46.2396 65.0216 46.2396C65.0216 46.2396 62.3638 43.8539 61.4842 42.1769C60.3768 40.057 59.9464 38.0067 61.0602 37.2473Z" fill="#E2A610"/>
</svg>
