<svg width="20" height="20" viewBox="0 0 20 20" fill="none" xmlns="http://www.w3.org/2000/svg">
<path d="M14.6029 6.16399C15.6514 5.93118 17.017 4.89056 17.2248 4.37806C17.3467 4.07806 16.7389 3.60931 16.5764 3.42024C16.2045 2.98899 16.3545 2.77649 16.4982 2.26243C16.6623 1.67806 16.2732 1.03274 15.7217 0.779618C15.1701 0.526493 14.5107 0.60618 13.9561 0.853055C13.4014 1.09993 12.9279 1.49681 12.4639 1.88743C12.1248 1.67337 11.5842 0.728055 10.7092 1.34212C10.1045 1.76556 10.0498 2.68743 10.1279 3.42337C10.3107 5.12181 10.7295 6.00306 11.5186 6.24055C12.5154 6.54056 13.6186 6.38274 14.6029 6.16399Z" fill="#126295"/>
<path d="M16.3062 1.27808C16.1734 3.56714 13.9405 5.08589 12.8812 5.75464L13.5687 6.34526C13.5687 6.34526 14.0046 6.35464 14.6015 6.16401C15.6249 5.83901 17.1202 4.92026 17.2234 4.37808C17.3749 3.58901 16.5655 3.76089 16.3827 3.13745C16.2874 2.80776 16.8468 2.18433 16.3062 1.27808ZM12.4655 1.88901C12.4655 1.88901 12.0671 1.4812 11.7718 1.29526C11.6249 1.57183 11.5202 1.87183 11.4687 2.1812C11.3765 2.72495 11.4687 3.49683 11.6859 4.07183C11.7202 4.16089 11.8484 4.14683 11.8624 4.05308C12.0499 2.81714 12.4655 1.88901 12.4655 1.88901Z" fill="#126295"/>
<path d="M9.68128 5.96246C9.68128 5.96246 4.80784 6.48903 2.6094 10.7203C0.410965 14.9515 2.27971 17.5172 4.25784 18.4515C6.23596 19.3859 11.2203 19.7156 14.4625 18.9468C17.7047 18.1781 18.5157 16.5843 18.3641 15.0453C18.1438 12.7984 16.0563 11.4172 16.0563 11.4172C16.0563 11.4172 16.1391 8.64215 13.986 6.84059C12.075 5.24059 9.68128 5.96246 9.68128 5.96246Z" fill="#126295"/>
<path d="M11.681 13.0827C10.6357 11.764 9.40136 11.5874 9.00604 11.114C8.79042 10.8562 8.66386 10.5952 8.71229 10.2718C8.76386 9.92803 9.16229 9.69053 9.47167 9.63272C9.83261 9.56397 10.6935 9.5999 11.417 10.289C11.5889 10.4515 11.5264 10.7046 11.5217 10.9312C11.5092 11.4171 12.2045 11.889 12.767 11.4827C13.331 11.0749 12.8982 10.1671 12.5342 9.72647C12.2592 9.39365 11.2623 8.66084 10.0232 8.54521C9.67479 8.5124 8.27323 8.30459 7.46386 9.84365C7.23104 10.2858 7.14511 11.3546 8.36386 12.2577C8.61854 12.4468 9.94042 13.1187 10.3076 13.5546C10.9435 14.3093 10.5076 14.9733 10.0107 15.0608C8.65604 15.2983 7.88886 14.5655 7.74667 14.164C7.64511 13.878 7.75136 13.5687 7.62011 13.2999C7.48573 13.0233 7.21073 12.914 6.92011 13.0062C5.96698 13.3093 6.27011 14.3515 6.69198 14.9249C7.14354 15.539 7.69823 15.9093 8.32167 16.1124C10.6482 16.8702 11.767 15.6733 11.9623 14.7968C12.106 14.1546 12.0904 13.5983 11.681 13.0827Z" fill="#BBD8FF"/>
<path d="M11.1187 7.65479C9.13897 11.8829 8.79834 17.222 8.79834 17.222" stroke="#BBD8FF" stroke-width="0.625" stroke-miterlimit="10"/>
<path d="M12.7607 4.99383C14.0795 5.42352 14.3717 6.61571 14.2764 6.94071C14.1623 7.32196 12.7014 5.83758 10.5295 5.92665C9.77011 5.9579 9.99042 5.49227 10.342 5.22352C10.806 4.86883 11.5857 4.61258 12.7607 4.99383Z" fill="#BBD8FF"/>
<path d="M12.7607 4.99383C14.0795 5.42352 14.3717 6.61571 14.2764 6.94071C14.1623 7.32196 12.7014 5.83758 10.5295 5.92665C9.77011 5.9579 9.99042 5.49227 10.342 5.22352C10.806 4.86883 11.5857 4.61258 12.7607 4.99383Z" fill="#BBD8FF"/>
<path d="M15.0768 9.19695C15.2424 9.08288 15.7986 9.27976 15.9549 10.3688C16.0314 10.9016 16.0549 11.4173 16.0549 11.4173C16.0549 11.4173 15.3986 10.8282 15.1814 10.4141C14.908 9.8907 14.8018 9.38445 15.0768 9.19695Z" fill="#126295"/>
</svg>
