<svg width="48" height="45" viewBox="0 0 48 45" fill="none" xmlns="http://www.w3.org/2000/svg">
<path d="M22.8569 0.900024C17.0373 0.900024 11.4561 3.17573 7.34098 7.22652C3.22589 11.2773 0.914063 16.7713 0.914062 22.5C0.914213 25.3366 1.48193 28.1453 2.5848 30.7659C3.68767 33.3865 5.3041 35.7676 7.34178 37.7732C9.37947 39.7788 11.7985 41.3698 14.4608 42.4551C17.1231 43.5405 19.9765 44.099 22.8581 44.0989C25.7396 44.0988 28.593 43.5399 31.2551 42.4543C33.9173 41.3686 36.3362 39.7775 38.3737 37.7716C40.4111 35.7658 42.0273 33.3845 43.1299 30.7638C44.2325 28.1431 44.7999 25.3343 44.7998 22.4978C44.7998 10.5705 34.9735 0.900024 22.8569 0.900024ZM22.8569 39.5978C20.5757 39.5978 18.3168 39.1555 16.2092 38.2961C14.1016 37.4368 12.1866 36.1772 10.5735 34.5893C8.96038 33.0014 7.68081 31.1163 6.80781 29.0417C5.93482 26.967 5.48549 24.7434 5.48549 22.4978C5.48549 20.2522 5.93482 18.0286 6.80781 15.9539C7.68081 13.8792 8.96038 11.9941 10.5735 10.4062C12.1866 8.81837 14.1016 7.55879 16.2092 6.69943C18.3168 5.84008 20.5757 5.39777 22.8569 5.39777V22.5L38.3815 14.859C39.595 17.229 40.2276 19.846 40.2283 22.5C40.2277 27.0348 38.3973 31.3837 35.1396 34.5901C31.8819 37.7965 27.4637 39.5978 22.8569 39.5978Z" fill="#126295"/>
</svg>
